# xmcd CD database file
#
# Track frame offsets:
#	150
#	12033
#	29256
#	57419
#	84033
#	95268
#	106201
#	152005
#	179977
#	188508
#	203088
#	236967
#	273858
#	285745
#
# Disc length: 3933 seconds
#
# Revision: 0
# Processed by: cddbd v1.5.2PL0 Copyright (c) Steve Scherf et al.
# Submitted via: CDex 1.51
#
DISCID=b20f5b0e
DTITLE=Chris Biscoe - Profiles Of Mingus
DYEAR=2010
DGENRE=Jazz
TTITLE0=01-Fables Of Faubus-take 3
TTITLE1=02-Duke's Choice
TTITLE2=03-Boogie Stop Shuffle
TTITLE3=04-Goodbye Pork Pie Hat
TTITLE4=05-PSPPH
TTITLE5=06-J-Yarde
TTITLE6=07-Reincarnation Of A Lovebird
TTITLE7=08-Self-Portrait In Three Colors
TTITLE8=09-Martha And Daughter
TTITLE9=10-All The Things You Could Be Now If Sigmund Freud's Wife Was Your Mother
TTITLE10=11-Pussy Cat Dues
TTITLE11=12-Blue Cee
TTITLE12=13-Fables Of Faubus-take 2
TTITLE13=14-Bass Notes
EXTD=YEAR: 2010
EXTT0=
EXTT1=
EXTT2=
EXTT3=
EXTT4=
EXTT5=
EXTT6=
EXTT7=
EXTT8=
EXTT9=
EXTT10=
EXTT11=
EXTT12=
EXTT13=
PLAYORDER=
